<svg xmlns="http://www.w3.org/2000/svg" viewBox="0 0 420 104" role="img" aria-labelledby="title desc">
  <title id="title">BN Material</title>
  <desc id="desc">A faceted hexagonal materials lattice forming the BN monogram.</desc>
  <defs>
    <linearGradient id="g" x1="0" y1="0" x2="1" y2="1">
      <stop offset="0" stop-color="#8ce8ff"/>
      <stop offset="0.52" stop-color="#36aeea"/>
      <stop offset="1" stop-color="#8e7cff"/>
    </linearGradient>
    <linearGradient id="g2" x1="0" y1="1" x2="1" y2="0">
      <stop offset="0" stop-color="#b7f4ff"/>
      <stop offset="1" stop-color="#6bc6ff"/>
    </linearGradient>
  </defs>
  <g transform="translate(4 4)">
    <path d="M48 0 89 24v48L48 96 7 72V24Z" fill="none" stroke="url(#g)" stroke-width="2"/>
    <path d="M48 8 81.5 27.5v39L48 86 14.5 66.5v-39Z" fill="#07131b" stroke="#224353"/>
    <path d="M25 25h23c11.5 0 18 5.2 18 13.5 0 5.7-3.3 9.8-8.6 11.7 7.2 1.8 11.1 6.5 11.1 13.3C68.5 73 61 78 48 78H25Zm21.5 20.2c5.4 0 8.2-1.9 8.2-5.8s-2.8-5.7-8.2-5.7H36v11.5Zm1.8 24c6.1 0 9.2-2.2 9.2-6.7 0-4.4-3.1-6.5-9.2-6.5H36v13.2Z" fill="url(#g2)"/>
    <path d="M61 23h10.5l15 33.4V23H97v55H86.8L71.5 44v34H61Z" fill="url(#g)" transform="translate(-16)" opacity=".96"/>
    <g fill="#8ce8ff">
      <circle cx="48" cy="8" r="2.5"/><circle cx="81.5" cy="27.5" r="2.5"/><circle cx="81.5" cy="66.5" r="2.5"/>
      <circle cx="48" cy="86" r="2.5"/><circle cx="14.5" cy="66.5" r="2.5"/><circle cx="14.5" cy="27.5" r="2.5"/>
    </g>
  </g>
  <g transform="translate(120 25)">
    <text x="0" y="28" fill="#eef7f8" font-family="Arial, Helvetica, sans-serif" font-size="34" font-weight="700" letter-spacing="-1.4">BN MATERIAL</text>
    <text x="1" y="52" fill="#7e96a3" font-family="Arial, Helvetica, sans-serif" font-size="11" font-weight="600" letter-spacing="3.1">ENGINEERING MATTER ACROSS SCALES</text>
  </g>
</svg>
