<svg xmlns="http://www.w3.org/2000/svg" viewBox="0 0 104 104">
  <path d="M52 4 94 28v48L52 100 10 76V28Z" fill="#07131b" stroke="#76dcff" stroke-width="3"/>
  <path d="M28 29h24c12 0 19 5 19 14 0 6-3 10-9 12 8 2 12 7 12 14 0 10-8 16-22 16H28Zm23 21c5 0 8-2 8-6s-3-6-8-6H40v12Zm2 25c6 0 9-2 9-7s-3-7-9-7H40v14Z" fill="#a9efff"/>
  <path d="M58 27h11l17 36V27h11v58H86L69 48v37H58Z" fill="#55bff2" transform="translate(-12)"/>
  <g fill="#8e7cff"><circle cx="52" cy="4" r="3"/><circle cx="94" cy="28" r="3"/><circle cx="94" cy="76" r="3"/><circle cx="52" cy="100" r="3"/><circle cx="10" cy="76" r="3"/><circle cx="10" cy="28" r="3"/></g>
</svg>
