<svg xmlns="http://www.w3.org/2000/svg" width="1200" height="630" viewBox="0 0 1200 630" role="img" aria-labelledby="title desc">
  <title id="title">BN Material</title>
  <desc id="desc">Materials engineered for what comes next.</desc>
  <defs>
    <linearGradient id="bg" x1="0" y1="0" x2="1" y2="1">
      <stop stop-color="#030107"/>
      <stop offset=".52" stop-color="#07020f"/>
      <stop offset="1" stop-color="#1a0628"/>
    </linearGradient>
    <linearGradient id="spectrum" x1="0" y1="0" x2="1" y2="1">
      <stop stop-color="#00efff"/>
      <stop offset=".53" stop-color="#8d7cff"/>
      <stop offset="1" stop-color="#ff4fd8"/>
    </linearGradient>
    <radialGradient id="core">
      <stop stop-color="#fff"/>
      <stop offset=".2" stop-color="#00efff"/>
      <stop offset="1" stop-color="#8d7cff" stop-opacity="0"/>
    </radialGradient>
  </defs>
  <rect width="1200" height="630" fill="url(#bg)"/>
  <g fill="none" stroke="url(#spectrum)" stroke-linecap="round">
    <path d="M520 472C675 112 791 566 940 256s188 76 293 164" stroke-width="5"/>
    <path d="M486 369c181 184 278-231 446 57s216-187 338-238" stroke-width="2.5" opacity=".55"/>
    <path d="M550 548c184-145 270-395 411-263s151 256 286-174" stroke-width="1.5" opacity=".32"/>
  </g>
  <circle cx="919" cy="329" r="118" fill="url(#core)"/>
  <text x="80" y="210" fill="#00efff" font-family="Arial, Helvetica, sans-serif" font-size="68" font-weight="800" letter-spacing="-5">BN</text>
  <circle cx="170" cy="150" r="7" fill="#ffd84d"/>
  <text x="189" y="210" fill="#faf8ff" font-family="Arial, Helvetica, sans-serif" font-size="68" font-weight="800" letter-spacing="-2">MATERIAL</text>
  <rect x="80" y="250" width="104" height="4" rx="2" fill="#ffd84d"/>
  <text x="80" y="338" fill="#faf8ff" font-family="Arial, Helvetica, sans-serif" font-size="48" font-weight="700" letter-spacing="-1.5">Materials engineered</text>
  <text x="80" y="398" fill="url(#spectrum)" font-family="Arial, Helvetica, sans-serif" font-size="48" font-weight="700" letter-spacing="-1.5">for what comes next.</text>
</svg>
